<svg xmlns="http://www.w3.org/2000/svg" id="Layer_3" data-name="Layer 3" viewBox="31.62 189.92 448.42 536.67">
  <defs>
    <style>
      .cls-1 {
        fill: #fff;
      }
    </style>
  </defs>
  <path class="cls-1" d="M475.16,266.79c-5.35-34.1-37.37-41.94-37.37-41.94,0,0-24.24-1.78-76.99-1.78s-104.97-33.15-104.97-33.15c0,0-52.22,33.15-104.97,33.15s-76.99,1.78-76.99,1.78c0,0-32.02,7.84-37.37,41.94s-4.87,73.72-4.87,73.72c0,0-.12,79.54,43.6,182.2,31.07,72.95,97.31,137.39,133.04,168.56,12.7,11.08,26.15,21.26,40.24,30.51l7.32,4.81,7.32-4.81c14.09-9.25,27.54-19.43,40.24-30.51,35.73-31.18,101.96-95.61,133.04-168.56,43.72-102.65,43.6-182.2,43.6-182.2,0,0,.48-39.62-4.87-73.72Zm-75.33,252.83c0,7.28-5.9,13.19-13.19,13.19h-119.11c-7.28,0-13.19-5.9-13.19-13.19v-13.31c0-.2,.02-.4,.03-.61,0-.03-.01-.05-.01-.08,0-6.44,7.08-14.12,7.08-14.12l71.29-98.18h-75.12v60c0,7.28-5.9,13.19-13.19,13.19h-26.55c-7.28,0-13.19-5.9-13.19-13.19v-60h-44.08c-4.96,0-9.27-2.74-11.52-6.78v66.78c0,7.28-5.9,13.19-13.19,13.19h-26.55c-7.28,0-13.19-5.9-13.19-13.19v-154.51c0-7.28,5.9-13.19,13.19-13.19h26.55c7.28,0,13.19,5.9,13.19,13.19v61.62c2.25-4.04,6.57-6.78,11.52-6.78h44.08v-54.83c0-7.28,5.9-13.19,13.19-13.19h26.55c7.28,0,13.19,5.9,13.19,13.19v54.83h122.44c7.28,0,13.19,5.9,13.19,13.19v13.31c0,10.08-2.23,13.19-2.23,13.19l-71.47,99.8h67.1c7.28,0,13.19,5.9,13.19,13.19v13.31Z"/>
</svg>